<?xml version="1.0" standalone="no"?>
<!DOCTYPE svg PUBLIC "-//W3C//DTD SVG 1.1//EN"
  "http://www.w3.org/Graphics/SVG/1.1/DTD/svg11.dtd">
<svg width="86.06999969482422mm" height="101.1179962158203mm" viewBox="-50.06999969482422 -21.999999999999996 86.06999969482422 101.1179962158203" xmlns="http://www.w3.org/2000/svg" version="1.1">
	<title>svgOutput</title>
	<desc>made with tinkercad</desc>
<path d="M -2 8.999999999999998 L -2 8.19200038909912 L -2 6.998000144958494 L -4.0960001945495605 6.998000144958494 L -6 6.998000144958494 L -6 7.16800022125244 L -6 8.19200038909912 L -6 8.999999999999998 L -16.384000778198242 8.999999999999998 L -21 8.999999999999998 L -21 8.19200038909912 L -21 6.998000144958494 L -22.527999877929688 6.998000144958494 L -24.576000213623047 6.998000144958494 L -26 6.998000144958494 L -26 8.19200038909912 L -26 8.999999999999998 L -26.108999252319336 8.999999999999998 L -39 8.999999999999998 L -41 8.999999999999998 L -41 6.998000144958494 L -45.00299835205078 6.998000144958494 L -45.00299835205078 8.999999999999998 L -45.00299835205078 16.999999999999996 L -44.198001861572266 16.999999999999996 L -43 16.999999999999996 L -43 23.70299911499023 L -43 25.003000259399407 L -39 25.003000259399407 L -26.108999252319336 25.003000259399407 L 11 25.003000259399407 L 16 25.003000259399407 L 32.00199890136719 25.003000259399407 L 32.00199890136719 24.999999999999993 L 32.00199890136719 13.999999999999996 L 32.00199890136719 8.999999999999998 L 27.99799919128418 8.999999999999998 L 17 8.999999999999998 L 17 6.998000144958494 L 16 6.998000144958494 L 13.003000259399414 6.998000144958494 L 13 6.998000144958494 L 13 8.999999999999998 L 11 8.999999999999998 L 0 8.999999999999998 L -2 8.999999999999998 M -49.06999969482422 29.999999999999993 L -46.10900115966797 29.999999999999993 L -39 29.999999999999993 L -32.768001556396484 29.999999999999993 L -26.108999252319336 29.999999999999993 L 0 29.999999999999993 L 11 29.999999999999993 L 16 29.999999999999993 L 34 29.999999999999993 L 35 29.999999999999993 L 35 78.1179962158203 L 34 78.1179962158203 L 32.768001556396484 78.1179962158203 L 24.576000213623047 78.1179962158203 L 16.384000778198242 78.1179962158203 L 16 78.1179962158203 L 11 78.1179962158203 L 8.192000389099121 78.1179962158203 L 0 78.1179962158203 L -8.192000389099121 78.1179962158203 L -16.384000778198242 78.1179962158203 L -26.108999252319336 78.1179962158203 L -32.768001556396484 78.1179962158203 L -39 78.1179962158203 L -40.959999084472656 78.1179962158203 L -42.47136688232422 78.1179962158203 L -43.51887512207031 78.1179962158203 L -44.60627365112305 78.1179962158203 L -45.90393829345703 78.1179962158203 L -46.10900115966797 78.1179962158203 L -47.9030876159668 78.1179962158203 L -49.06999969482422 78.1179962158203 L -49.06999969482422 77.21020507812499 L -49.06999969482422 74.95650482177733 L -49.06999969482422 73.94979095458983 L -49.06999969482422 73.72799682617186 L -49.06999969482422 69.63200378417967 L -49.06999969482422 65.53600311279295 L -49.06999969482422 29.999999999999993 M -49.06999969482422 27.11800003051757 L -49.06999969482422 5.002999782562255 L -46.803001403808594 5.002999782562255 L -46.10900115966797 5.002999782562255 L -45.00299835205078 5.002999782562255 L -39 5.002999782562255 L -26.108999252319336 5.002999782562255 L -24.576000213623047 5.002999782562255 L -20.479999542236328 5.002999782562255 L -16.384000778198242 5.002999782562255 L -8.192000389099121 5.002999782562255 L -4.0960001945495605 5.002999782562255 L 0 5.002999782562255 L 11 5.002999782562255 L 11 -18.00300025939941 L 0 -18.00300025939941 L -26.108999252319336 -18.00300025939941 L -45.00299835205078 -18.00300025939941 L -46.10900115966797 -18.00300025939941 L -49.06999969482422 -18.00300025939941 L -49.06999969482422 -20.999999999999996 L -46.10900115966797 -20.999999999999996 L -39 -20.999999999999996 L -26.108999252319336 -20.999999999999996 L 0 -20.999999999999996 L 11 -20.999999999999996 L 16 -20.999999999999996 L 26.99799919128418 -20.999999999999996 L 29.60300064086914 -20.999999999999996 L 32.00199890136719 -20.999999999999996 L 34 -20.999999999999996 L 35 -20.999999999999996 L 35 27.11800003051757 L 34 27.11800003051757 L 32.00199890136719 27.11800003051757 L 16 27.11800003051757 L 11 27.11800003051757 L -26.108999252319336 27.11800003051757 L -39 27.11800003051757 L -45.00299835205078 27.11800003051757 L -46.10900115966797 27.11800003051757 L -46.803001403808594 27.11800003051757 L -49.06999969482422 27.11800003051757 M -46.79100036621094 73.5699996948242 L -46.7597770690918 73.72799682617186 L -46.757999420166016 73.73699951171874 L -46.702999114990234 73.8980026245117 L -46.62799835205078 74.05100250244139 L -46.53300094604492 74.19300079345702 L -46.42100143432617 74.3209991455078 L -46.292999267578125 74.43299865722655 L -46.1510009765625 74.52799987792967 L -46.10900115966797 74.54859161376952 L -45.99800109863281 74.60299682617186 L -45.83700180053711 74.65799713134764 L -45.66999816894531 74.69100189208983 L -45.5 74.70300292968749 L -45.33000183105469 74.69100189208983 L -45.16299819946289 74.65799713134764 L -45.055999755859375 74.62144470214842 L -45.00199890136719 74.60299682617186 L -44.8489990234375 74.52799987792967 L -44.707000732421875 74.43299865722655 L -44.57899856567383 74.3209991455078 L -44.46699905395508 74.19300079345702 L -44.37200164794922 74.05100250244139 L -44.297000885009766 73.8980026245117 L -44.242000579833984 73.73699951171874 L -44.2402229309082 73.72799682617186 L -44.20899963378906 73.5699996948242 L -44.198001861572266 73.40000152587889 L -44.20899963378906 73.23000335693358 L -44.242000579833984 73.06300354003905 L -44.297000885009766 72.90200042724608 L -44.37200164794922 72.74900054931639 L -44.46699905395508 72.60700225830077 L -44.57899856567383 72.47899627685545 L -44.707000732421875 72.3669967651367 L -44.8489990234375 72.27200317382811 L -45.00199890136719 72.19699859619139 L -45.055999755859375 72.17855072021483 L -45.16299819946289 72.14199829101561 L -45.33000183105469 72.10900115966795 L -45.5 72.09799957275389 L -45.66999816894531 72.10900115966795 L -45.83700180053711 72.14199829101561 L -45.99800109863281 72.19699859619139 L -46.08000183105469 72.23719787597655 L -46.10900115966797 72.25141143798827 L -46.1510009765625 72.27200317382811 L -46.292999267578125 72.3669967651367 L -46.42100143432617 72.47899627685545 L -46.53300094604492 72.60700225830077 L -46.62799835205078 72.74900054931639 L -46.702999114990234 72.90200042724608 L -46.757999420166016 73.06300354003905 L -46.79100036621094 73.23000335693358 L -46.803001403808594 73.40000152587889 L -46.79100036621094 73.5699996948242 M -46.10900115966797 23.548587799072262 L -46.08000183105469 23.562803268432614 L -45.99800109863281 23.603000640869137 L -45.83700180053711 23.65800094604492 L -45.66999816894531 23.690999984741207 L -45.5 23.70299911499023 L -45.33000183105469 23.690999984741207 L -45.16299819946289 23.65800094604492 L -45.055999755859375 23.621446609497067 L -45.00299835205078 23.60334205627441 L -45.00199890136719 23.603000640869137 L -44.8489990234375 23.527999877929684 L -44.707000732421875 23.43300056457519 L -44.57899856567383 23.32099914550781 L -44.46699905395508 23.193000793457028 L -44.37200164794922 23.05100059509277 L -44.297000885009766 22.898000717163082 L -44.242000579833984 22.736999511718746 L -44.20899963378906 22.569999694824215 L -44.20628356933594 22.527999877929684 L -44.198001861572266 22.39999961853027 L -44.20899963378906 22.229999542236325 L -44.242000579833984 22.062999725341793 L -44.297000885009766 21.90200042724609 L -44.37200164794922 21.749000549316403 L -44.46699905395508 21.607000350952145 L -44.57899856567383 21.47900009155273 L -44.707000732421875 21.36700057983398 L -44.8489990234375 21.271999359130856 L -45.00199890136719 21.197000503540036 L -45.00299835205078 21.196659088134762 L -45.055999755859375 21.178552627563473 L -45.16299819946289 21.142000198364254 L -45.33000183105469 21.108999252319332 L -45.5 21.097999572753903 L -45.66999816894531 21.108999252319332 L -45.83700180053711 21.142000198364254 L -45.99800109863281 21.197000503540036 L -46.08000183105469 21.237195968627926 L -46.10900115966797 21.251411437988278 L -46.1510009765625 21.271999359130856 L -46.292999267578125 21.36700057983398 L -46.42100143432617 21.47900009155273 L -46.53300094604492 21.607000350952145 L -46.62799835205078 21.749000549316403 L -46.702999114990234 21.90200042724609 L -46.757999420166016 22.062999725341793 L -46.79100036621094 22.229999542236325 L -46.803001403808594 22.39999961853027 L -46.79396438598633 22.527999877929684 L -46.79100036621094 22.569999694824215 L -46.757999420166016 22.736999511718746 L -46.702999114990234 22.898000717163082 L -46.62799835205078 23.05100059509277 L -46.53300094604492 23.193000793457028 L -46.42100143432617 23.32099914550781 L -46.292999267578125 23.43300056457519 L -46.1510009765625 23.527999877929684 L -46.10900115966797 23.548587799072262 M -39 44.65750122070312 L -39.00299835205078 44.700000762939446 L -39 44.742500305175774 L -38.99100112915039 44.86999893188476 L -38.95800018310547 45.03699874877929 L -38.951507568359375 45.05599975585937 L -38.9119987487793 45.17165374755859 L -38.90299987792969 45.19800186157226 L -38.827999114990234 45.351001739501946 L -38.733001708984375 45.49300003051757 L -38.62099838256836 45.62099838256835 L -38.49300003051758 45.73300170898437 L -38.35100173950195 45.82799911499023 L -38.198001861572266 45.90299987792968 L -38.0369987487793 45.95800018310546 L -37.88800048828125 45.987442016601555 L -37.869998931884766 45.99100112915038 L -37.70000076293945 46.002998352050774 L -37.529998779296875 45.99100112915038 L -37.362998962402344 45.95800018310546 L -37.20199966430664 45.90299987792968 L -37.04899978637695 45.82799911499023 L -36.90700149536133 45.73300170898437 L -36.86399841308594 45.69537353515624 L -36.77899932861328 45.62099838256835 L -36.66699981689453 45.49300003051757 L -36.571998596191406 45.351001739501946 L -36.49700164794922 45.19800186157226 L -36.448490142822266 45.05599975585937 L -36.44200134277344 45.03699874877929 L -36.409000396728516 44.86999893188476 L -36.39799880981445 44.700000762939446 L -36.409000396728516 44.52999877929687 L -36.44200134277344 44.36299896240234 L -36.49700164794922 44.20199966430663 L -36.571998596191406 44.048999786376946 L -36.66699981689453 43.90700149536132 L -36.77899932861328 43.778999328613274 L -36.86399841308594 43.70462417602538 L -36.90700149536133 43.666999816894524 L -37.04899978637695 43.5719985961914 L -37.20199966430664 43.49700164794921 L -37.362998962402344 43.44200134277343 L -37.529998779296875 43.40900039672851 L -37.70000076293945 43.397998809814446 L -37.869998931884766 43.40900039672851 L -37.88800048828125 43.41255569458007 L -38.0369987487793 43.44200134277343 L -38.198001861572266 43.49700164794921 L -38.35100173950195 43.5719985961914 L -38.49300003051758 43.666999816894524 L -38.62099838256836 43.778999328613274 L -38.733001708984375 43.90700149536132 L -38.827999114990234 44.048999786376946 L -38.90299987792969 44.20199966430663 L -38.9119987487793 44.22834396362304 L -38.95800018310547 44.36299896240234 L -38.99100112915039 44.52999877929687 L -39 44.65750122070312 M 27.00861167907715 36.86399841308593 L 27.009000778198242 36.86999893188476 L 27.04199981689453 37.03699874877929 L 27.097000122070312 37.19800186157226 L 27.172000885009766 37.351001739501946 L 27.267000198364258 37.49300003051757 L 27.378999710083008 37.62099838256835 L 27.506999969482422 37.73300170898437 L 27.648000717163086 37.82733154296874 L 27.64900016784668 37.82799911499023 L 27.802000045776367 37.90299987792968 L 27.96299934387207 37.95800018310546 L 28.1299991607666 37.99100112915038 L 28.299999237060547 38.002998352050774 L 28.469999313354492 37.99100112915038 L 28.636999130249023 37.95800018310546 L 28.672000885009766 37.94604492187499 L 28.79800033569336 37.90299987792968 L 28.951000213623047 37.82799911499023 L 29.093000411987305 37.73300170898437 L 29.22100067138672 37.62099838256835 L 29.33300018310547 37.49300003051757 L 29.42799949645996 37.351001739501946 L 29.503000259399414 37.19800186157226 L 29.558000564575195 37.03699874877929 L 29.590999603271484 36.86999893188476 L 29.59142303466797 36.86399841308593 L 29.60300064086914 36.700000762939446 L 29.590999603271484 36.52999877929687 L 29.558000564575195 36.36299896240234 L 29.503000259399414 36.20199966430663 L 29.42799949645996 36.048999786376946 L 29.33300018310547 35.90700149536132 L 29.22100067138672 35.778999328613274 L 29.093000411987305 35.666999816894524 L 28.951000213623047 35.5719985961914 L 28.79800033569336 35.49700164794921 L 28.672000885009766 35.4539566040039 L 28.636999130249023 35.44200134277343 L 28.469999313354492 35.40900039672851 L 28.299999237060547 35.397998809814446 L 28.1299991607666 35.40900039672851 L 27.96299934387207 35.44200134277343 L 27.802000045776367 35.49700164794921 L 27.64900016784668 35.5719985961914 L 27.648000717163086 35.57266998291015 L 27.506999969482422 35.666999816894524 L 27.378999710083008 35.778999328613274 L 27.267000198364258 35.90700149536132 L 27.172000885009766 36.048999786376946 L 27.097000122070312 36.20199966430663 L 27.04199981689453 36.36299896240234 L 27.009000778198242 36.52999877929687 L 26.99799919128418 36.700000762939446 L 27.00861167907715 36.86399841308593 M 28.097000122070312 57.19800186157225 L 28.168569564819336 57.34400177001952 L 28.172000885009766 57.35100173950194 L 28.267000198364258 57.493000030517564 L 28.378999710083008 57.620998382568345 L 28.506999969482422 57.73300170898436 L 28.64900016784668 57.82799911499022 L 28.672000885009766 57.83927536010741 L 28.802000045776367 57.90299987792967 L 28.96299934387207 57.958000183105455 L 29.1299991607666 57.991001129150376 L 29.299999237060547 58.00299835205077 L 29.469999313354492 57.991001129150376 L 29.636999130249023 57.958000183105455 L 29.79800033569336 57.90299987792967 L 29.951000213623047 57.82799911499022 L 30.093000411987305 57.73300170898436 L 30.22100067138672 57.620998382568345 L 30.33300018310547 57.493000030517564 L 30.42799949645996 57.35100173950194 L 30.43143081665039 57.34400177001952 L 30.503000259399414 57.19800186157225 L 30.558000564575195 57.03699874877928 L 30.590999603271484 56.86999893188475 L 30.60300064086914 56.70000076293944 L 30.590999603271484 56.52999877929686 L 30.558000564575195 56.36299896240233 L 30.543310165405273 56.319999694824205 L 30.503000259399414 56.201999664306626 L 30.42799949645996 56.04899978637694 L 30.33300018310547 55.907001495361314 L 30.22100067138672 55.77899932861327 L 30.093000411987305 55.66699981689452 L 29.951000213623047 55.57199859619139 L 29.79800033569336 55.497001647949205 L 29.636999130249023 55.44200134277342 L 29.469999313354492 55.4090003967285 L 29.299999237060547 55.39799880981444 L 29.1299991607666 55.4090003967285 L 28.96299934387207 55.44200134277342 L 28.802000045776367 55.497001647949205 L 28.672000885009766 55.56072616577147 L 28.64900016784668 55.57199859619139 L 28.506999969482422 55.66699981689452 L 28.378999710083008 55.77899932861327 L 28.267000198364258 55.907001495361314 L 28.172000885009766 56.04899978637694 L 28.097000122070312 56.201999664306626 L 28.04199981689453 56.36299896240233 L 28.009000778198242 56.52999877929686 L 27.99799919128418 56.70000076293944 L 28.009000778198242 56.86999893188475 L 28.04199981689453 57.03699874877928 L 28.097000122070312 57.19800186157225 M 29.22916603088379 6.998000144958494 L 29.299999237060547 7.002999782562254 L 29.370832443237305 6.998000144958494 L 29.469999313354492 6.991000175476072 L 29.636999130249023 6.958000183105467 L 29.79800033569336 6.902999877929686 L 29.951000213623047 6.828000068664549 L 30.093000411987305 6.73299980163574 L 30.22100067138672 6.620999813079832 L 30.33300018310547 6.493000030517576 L 30.42799949645996 6.3509998321533185 L 30.503000259399414 6.197999954223631 L 30.521448135375977 6.14400005340576 L 30.558000564575195 6.03700017929077 L 30.590999603271484 5.869999885559081 L 30.60300064086914 5.699999809265136 L 30.590999603271484 5.530000209808349 L 30.558000564575195 5.362999916076659 L 30.503000259399414 5.202000141143798 L 30.42799949645996 5.048999786376952 L 30.33300018310547 4.907000064849853 L 30.22100067138672 4.778999805450439 L 30.093000411987305 4.66699981689453 L 29.951000213623047 4.57200002670288 L 29.79800033569336 4.497000217437743 L 29.695999145507812 4.46215534210205 L 29.636999130249023 4.441999912261962 L 29.469999313354492 4.4089999198913565 L 29.299999237060547 4.397999763488769 L 29.1299991607666 4.4089999198913565 L 28.96299934387207 4.441999912261962 L 28.802000045776367 4.497000217437743 L 28.672000885009766 4.560725688934325 L 28.64900016784668 4.57200002670288 L 28.506999969482422 4.66699981689453 L 28.378999710083008 4.778999805450439 L 28.267000198364258 4.907000064849853 L 28.172000885009766 5.048999786376952 L 28.097000122070312 5.202000141143798 L 28.04199981689453 5.362999916076659 L 28.009000778198242 5.530000209808349 L 27.99799919128418 5.699999809265136 L 28.009000778198242 5.869999885559081 L 28.04199981689453 6.03700017929077 L 28.07855224609375 6.14400005340576 L 28.097000122070312 6.197999954223631 L 28.172000885009766 6.3509998321533185 L 28.267000198364258 6.493000030517576 L 28.378999710083008 6.620999813079832 L 28.506999969482422 6.73299980163574 L 28.64900016784668 6.828000068664549 L 28.672000885009766 6.839274406433104 L 28.802000045776367 6.902999877929686 L 28.96299934387207 6.958000183105467 L 29.1299991607666 6.991000175476072 L 29.22916603088379 6.998000144958494 M 27.506999969482422 -13.267000198364254 L 27.648000717163086 -13.172669410705563 L 27.64900016784668 -13.171999931335446 L 27.802000045776367 -13.097000122070309 L 27.96299934387207 -13.041999816894528 L 28.1299991607666 -13.008999824523922 L 28.299999237060547 -12.998000144958493 L 28.469999313354492 -13.008999824523922 L 28.636999130249023 -13.041999816894528 L 28.672000885009766 -13.05395698547363 L 28.79800033569336 -13.097000122070309 L 28.951000213623047 -13.171999931335446 L 29.093000411987305 -13.267000198364254 L 29.22100067138672 -13.378999710083004 L 29.33300018310547 -13.506999969482418 L 29.42799949645996 -13.649000167846676 L 29.503000259399414 -13.802000045776364 L 29.558000564575195 -13.963000297546383 L 29.590999603271484 -14.130000114440914 L 29.60300064086914 -14.30000019073486 L 29.6004581451416 -14.33600044250488 L 29.590999603271484 -14.470000267028805 L 29.558000564575195 -14.637000083923336 L 29.503000259399414 -14.798000335693356 L 29.42799949645996 -14.951000213623043 L 29.33300018310547 -15.093000411987301 L 29.22100067138672 -15.220999717712399 L 29.093000411987305 -15.333000183105465 L 28.951000213623047 -15.428000450134274 L 28.79800033569336 -15.50300025939941 L 28.672000885009766 -15.54604339599609 L 28.636999130249023 -15.557999610900875 L 28.469999313354492 -15.59099960327148 L 28.299999237060547 -15.60299968719482 L 28.1299991607666 -15.59099960327148 L 27.96299934387207 -15.557999610900875 L 27.802000045776367 -15.50300025939941 L 27.64900016784668 -15.428000450134274 L 27.648000717163086 -15.427330970764157 L 27.506999969482422 -15.333000183105465 L 27.378999710083008 -15.220999717712399 L 27.267000198364258 -15.093000411987301 L 27.172000885009766 -14.951000213623043 L 27.097000122070312 -14.798000335693356 L 27.04199981689453 -14.637000083923336 L 27.009000778198242 -14.470000267028805 L 27.000329971313477 -14.33600044250488 L 26.99799919128418 -14.30000019073486 L 27.009000778198242 -14.130000114440914 L 27.04199981689453 -13.963000297546383 L 27.097000122070312 -13.802000045776364 L 27.172000885009766 -13.649000167846676 L 27.267000198364258 -13.506999969482418 L 27.378999710083008 -13.378999710083004 L 27.506999969482422 -13.267000198364254 z" fill="none" stroke="rgb(255,0,0)" stroke-width="0.001mm" />
</svg>